<svg id="Layer_1" data-name="Layer 1" xmlns="http://www.w3.org/2000/svg" xmlns:xlink="http://www.w3.org/1999/xlink" viewBox="0 0 681.33 482.93"><defs><linearGradient id="linear-gradient" x1="334.01" y1="474.38" x2="333.74" y2="323.41" gradientUnits="userSpaceOnUse"><stop offset="0" stop-color="#010101" stop-opacity="0"/><stop offset="0.93" stop-color="#010101"/></linearGradient><linearGradient id="linear-gradient-2" x1="360.1" y1="93.38" x2="362.1" y2="833.12" xlink:href="#linear-gradient"/><linearGradient id="linear-gradient-3" x1="243.89" y1="174.01" x2="200.06" y2="148.78" xlink:href="#linear-gradient"/><linearGradient id="linear-gradient-4" x1="211.76" y1="132.4" x2="174.2" y2="148.48" xlink:href="#linear-gradient"/><linearGradient id="linear-gradient-3" x1="333.41" y1="378.33" x2="333.36" y2="432.33" xlink:href="#linear-gradient"/><linearGradient id="linear-gradient-6" x1="384.16" y1="289.98" x2="620.13" y2="318.41" gradientTransform="translate(-169.88 37.31) rotate(-11.38)" gradientUnits="userSpaceOnUse"><stop offset="0" stop-color="#fff" stop-opacity="0"/><stop offset="0.93" stop-color="#fff"/></linearGradient><linearGradient id="linear-gradient-7" x1="233.18" y1="110.12" x2="216.32" y2="191.33" xlink:href="#linear-gradient"/><linearGradient id="linear-gradient-8" x1="213.36" y1="114.36" x2="172.32" y2="130.73" xlink:href="#linear-gradient"/><linearGradient id="linear-gradient-9" x1="218.89" y1="137.03" x2="160.13" y2="123.42" xlink:href="#linear-gradient"/><linearGradient id="linear-gradient-10" x1="336.24" y1="74.84" x2="333.68" y2="117.28" xlink:href="#linear-gradient"/><linearGradient id="linear-gradient-11" x1="230.83" y1="177.21" x2="261.43" y2="164.44" xlink:href="#linear-gradient"/><linearGradient id="linear-gradient-12" x1="203.37" y1="177.86" x2="263.41" y2="148.42" xlink:href="#linear-gradient"/><linearGradient id="linear-gradient-13" x1="214.12" y1="113.76" x2="161.13" y2="132.97" xlink:href="#linear-gradient"/><linearGradient id="linear-gradient-14" x1="219.44" y1="90.97" x2="236.64" y2="43.63" xlink:href="#linear-gradient"/><linearGradient id="linear-gradient-13" x1="218.83" y1="73.13" x2="223.9" y2="74.16" xlink:href="#linear-gradient"/></defs><title>Google ad</title><path d="M288.61,104c-33.33-11.83-119.47-2.61-136.86,39.86-16,18.24-23.91,41-34.94,63.33-11.66,29.13-22.63,39.06-41.38,84.23C38.26,314.72,14.48,334,3.6,361.34c-13.07,40.27,10.67,83,37.94,113.41,14.63,17.38,31.06,34,31.63,43.63,17.3,8.19,37,10.83,36.2,12.92,110.31,11.9,221.63,7.33,332.31,2.79,31.18-1.28,62.3-2.38,93.17-8.4,24.17-4.39,48.26-12.21,68.21-26.62s33.39-36.38,37.69-60.88c2.06-22-6.39-43.64-17.3-62.69-8.88-13.22-19.83-30.17-21.74-47.68-1.72-13.78,4.18-31.23,7-46.87,8.76-47.91-14.18-100.07-33.41-126-27.73-17.46-61.1-23.07-93.47-28.32l-76.74-12.46c-22.73-3.69-41.6-1-64.03.27C336.37,117.89,312.44,109.13,288.61,104Z" transform="translate(-1.91 -37.98)" fill="#2e7ce4" opacity="0.24" style="isolation:isolate"/><polygon points="428.61 463.31 279.29 463.31 303.33 413.7 408.83 413.7 428.61 463.31" fill="#2e7ce4"/><polygon points="423.6 437.79 282.8 437.79 303.33 413.7 408.83 413.7 423.6 437.79" fill="url(#linear-gradient)"/><rect x="267.09" y="461.38" width="173.32" height="12.3" fill="#2e7ce4"/><path d="M376.32,173.32V468.44a13.76,13.76,0,0,1-13.81,13.74H138.78A13.76,13.76,0,0,1,143,468.44V173.32a13.83,13.83,0,0,1,13.81-13.81H362.31A13.83,13.83,0,0,1,376.32,173.32Z" transform="translate(-1.91 -37.98)" fill="#2e7ce4"/><path d="M376.32,173.32V420.11H143V173.32a13.83,13.83,0,0,1,13.81-13.81H362.31A13.83,13.83,0,0,1,376.32,173.32Z" transform="translate(-1.91 -37.98)" fill="url(#linear-gradient-2)"/><rect x="138.88" y="118.92" width="401.49" height="232.48" fill="#fff"/><path d="M440.03,193.47l87.36-23.19a8.34,8.34,0,0,1,10.22,6l22,86.24a8.33,8.33,0,0,1-6.08,10.16l-91.11,22.64A8.34,8.34,0,0,1,432.23,291L434,203.27A8.33,8.33,0,0,1,440.03,193.47Z" transform="translate(-1.91 -37.98)" fill="#2e7ce4" opacity="0.24" style="isolation:isolate"/><rect x="33.9" y="243.81" width="186.69" height="63.39" rx="18.33" fill="#2e7ce4" opacity="0.24" style="isolation:isolate"/><rect x="434.39" y="312.02" width="186.69" height="63.39" rx="18.33" fill="#2e7ce4" opacity="0.24" style="isolation:isolate"/><path d="M233.48,161.12c.29,6.22-7.66,37.17-9.39,38.32-1.44,1-4-.33-3.32-1.23-.29-.21-.3-.37-.7-.3-1.16-.86.7-24.64.7-24.64s.38-8.07-3.07-12.77c-6.3-3.23-13.32-10.06-13-13.76,0-.34,8.91-3.33,9.32-6,3.18-3.79,12.36,3.39,16.33,6.39a1.38,1.38,0,0,0,.21.12.14.14,0,0,1,0,.08c.08.09.2.23.41.46.29.37.74.9,1.24,1.32a46,46,0,0,1,3.38,3.81A16.79,16.79,0,0,1,233.48,161.12Z" transform="translate(-1.91 -37.98)" fill="#606161"/><path d="M231.63,134.94c0,1.61-12.4-1.07-13.93,1.61s1.86,1.61,3.03,7.34,0,30.43-1.32,33a3,3,0,0,1-.86,1.07c-.29-.21-.3-.37-.7-.3-1.16-.86.7-24.64.7-24.64s.38-8.07-3.07-12.77c0,0,.87-3.36-3.03-8.41a47.03,47.03,0,0,0-10-3.33c.43-.17,12.43-7.31,13.44-6.81.12.08,3.4.33,12.48,7.42.08.09.2.23.41.46.29.37.74.9,1.24,1.32C249.37,131.13,231.63,134,231.63,134.94Z" transform="translate(-1.91 -37.98)" fill="url(#linear-gradient-3)"/><path d="M228.84,197.1a12.6,12.6,0,0,1-3.13,4.94c-1.32,1.28-3.83,1.81-3.48.78-1.94-1.19-2.31-3.73-2.31-6-.66-7.73-.7-21.22-1.36-29a3.43,3.43,0,0,0-1.11-2.27l-.03,0a10.33,10.33,0,0,0-3.29-1.69c-2.33-.78-3.28-1.4-7.46-2.84a7.28,7.28,0,0,1-2-1.83c-3.87-3.32-3.32-16.12-2.1-21.27a3.63,3.63,0,0,1,4.24-2.88c3.61-.7,13.7,3,18.03,8,.74,1.63,1.07,3.47,2.14,4.91,1.86,2.39,3.33,3.38,7.34,6a10.77,10.77,0,0,1,1.48,4.34A70.64,70.64,0,0,1,228.84,197.1Z" transform="translate(-1.91 -37.98)" fill="#606161"/><path d="M216.28,163.76a2.67,2.67,0,0,1-.09,2.39c-.33-.17-.61-.37-.94-.34l-.03,0c-1.07-.37-2.18-1.13-3.29-1.69-1.37-.7-3.22-1.36-4.86-1.93-.87-.29-1.74-.38-2.6-.91a7.28,7.28,0,0,1-2-1.83c-3.87-3.32-3.32-16.12-2.1-21.27,3.13.21,6.18,1.63,9,3,1.69.83,3.38,1.61,3,2.36,1.07.61,3.23,1.32,1.36,2.72-2.3,1.6-6.71-1.24-8.48,1.36a3.94,3.94,0,0,0-.3,1.93c-.08,1-.16,2-.23,3.03a7.31,7.31,0,0,0,.17,2.72,6.1,6.1,0,0,0,2.39,2.72,61.34,61.34,0,0,1,3.32,3.83A6.29,6.29,0,0,1,216.28,163.76Z" transform="translate(-1.91 -37.98)" fill="url(#linear-gradient-4)"/><circle cx="333.43" cy="392.66" r="9.32" fill="url(#linear-gradient-3)"/><rect x="278.36" y="223.96" width="168.23" height="17.98" fill="#2e7ce4" opacity="0.61" style="isolation:isolate"/><rect x="280.11" y="227.62" width="164.94" height="14.4" fill="#fff"/><rect x="278.36" y="249.17" width="83.33" height="10.44" fill="#2e7ce4" opacity="0.61" style="isolation:isolate"/><rect x="363.37" y="249.17" width="83.33" height="10.44" fill="#2e7ce4" opacity="0.61" style="isolation:isolate"/><path d="M447.07,193l77-20.44A9,9,0,0,1,333,179l19.33,73.9a9,9,0,0,1-6.32,10.9l-80.3,20a9,9,0,0,1-10.92-6.83l-16-73.42A9,9,0,0,1,447.07,193Z" transform="translate(-1.91 -37.98)" fill="#fff"/><path d="M490.79,194.93c3.34.21,9,3.07,12.42,7,10.39,12.29,21.44,24.33,32.13,36.33,3.39,6.13,4.34,13-2.18,19.31a12.64,12.64,0,0,1-16.38-1.77c-6.31-6.83-12.41-13.9-18.6-20.86-.43-.48-.9-.93-1.33-1.4-3.73-4.23-7.39-8.36-11.19-12.74-3.34-3.68-6.68-7.31-7.49-12.48.39-3.84,3.13-10.36,8.62-12.93Z" transform="translate(-1.91 -37.98)" fill="#2e7ce4"/><path d="M478,208.73c.81,3.17,4.13,8.8,7.49,12.48,3.8,4.18,7.46,8.49,11.19,12.74L489,236.71a3.88,3.88,0,0,1-1,2c0-.33,0-.63,0-1-.44-9.24-8.08-14.8-16.91-12.33-2.89.81-4.82,2.92-6.82,4.93-.3-1,.34-1.87.63-2.76q6.18-18.8,12.42-37.33C477.36,209.38,477.41,209,478,208.73Z" transform="translate(-1.91 -37.98)" fill="#2e7ce4"/><path d="M478,208.73c.81,3.17,4.13,8.8,7.49,12.48,3.8,4.18,7.46,8.49,11.19,12.74L489,236.71a3.88,3.88,0,0,1-1,2c0-.33,0-.63,0-1-.44-9.24-8.08-14.8-16.91-12.33-2.89.81-4.82,2.92-6.82,4.93-.3-1,.34-1.87.63-2.76q6.18-18.8,12.42-37.33C477.36,209.38,477.41,209,478,208.73Z" transform="translate(-1.91 -37.98)" fill="url(#linear-gradient-6)"/><path d="M464.16,230.37c2-2,3.93-4.12,6.82-4.93,8.83-2.47,16.47,3.09,16.91,12.33,0,.33,0,.63,0,1-.23,3.82-4.69,10.63-10.9,11.78a13,13,0,0,1-13.88-7.3c-1.9-4.23-1.09-8.23.37-12.24.32,0,.33-.07.46-.43Z" transform="translate(-1.91 -37.98)" fill="#2e7ce4"/><polygon points="481.11 123.21 477.33 13.38 477.87 13.29 481.43 123.12 481.11 123.21" fill="#2e7ce4"/><path d="M237.68,92.07c3.61,2.83,13.46,8.17,20.46,12a3.87,3.87,0,0,0,2.29,1.26,3.73,3.73,0,0,0,3-.43l9.32-3.27a3.19,3.19,0,0,1,2.89-.4c1.72.42,2.34,2.33,2.17,4.28a10.41,10.41,0,0,1-2.79,4.46l-3,3.36c-1.88,2.11-3.9,4.31-6.39,3.17-4.06,1.29-8.36-.81-12-3-6.78-4.17-16.08-6.39-20-13.3-1.19-2.13-1.23-9.44,1-11.64C233,90.07,233.29,90.87,237.68,92.07Z" transform="translate(-1.91 -37.98)" fill="#2e7ce4"/><path d="M238.31,110.88l.38-3.22s13.47,10,19.14,9.47,17.47-9.37,17.47-9.37-3.33,9.76-9.34,13.24S262.87,123.06,238.31,110.88Z" transform="translate(-1.91 -37.98)" fill="url(#linear-gradient-7)"/><path d="M199.2,134.93a6.13,6.13,0,0,0,.87,3.61,6.73,6.73,0,0,0,2.43,1.73c4.39,2.3,9.23,4.63,14.3,3.39s10.61.36,14.7-2.74a8.87,8.87,0,0,0,3.22-4.24c.63-2.08.21-4.33.1-6.31-.28-3.44,1.33-10.73,2.8-16s1.93-11.1-.47-16c-1.89-3.84,2.18-7.07-1.4-9.42-3-3.31-11-4.91-19.23-3.68-3.2.48-14.12,3-13.3,8s2.27,6.08,1.86,9.29C201.83,114.33,199.2,124.9,199.2,134.93Z" transform="translate(-1.91 -37.98)" fill="#2e7ce4"/><path d="M213.79,120.33a9.33,9.33,0,0,1-3.41-6.38c-.1-1.8.36-3.61.13-3.4a7.24,7.24,0,0,0-2.6-4.73,1.33,1.33,0,0,0-2.11.2c-3.22,3.09-3.7,8-3.88,12.47-.08,2.13-.08,4.47,1.3,6.1,1.21,1.44,3.2,1.93,3.06,2.18s8,1.14,9.41-.3C221.74,122.43,217.13,121.69,213.79,120.33Z" transform="translate(-1.91 -37.98)" fill="url(#linear-gradient-8)"/><path d="M203.74,133.84a1.26,1.26,0,0,1,.42-.44,1.44,1.44,0,0,1,.8-.08c1.37.16,11.82.83,12.23.33s8.88-4.14,8.68-4.39-14.49-1.63-13-1.74c-1.73-.4-4,2.41-3.37,1.39A23.94,23.94,0,0,0,203,129c-1.21-.36-2.86-.22-3.28,1a3,3,0,0,0-.13.83l-.17,3.6a7.67,7.67,0,0,0,.49,3.93c.83,1.61,2.64,2.42,4.32,3.11a2.32,2.32,0,0,0,1.63.23C203,139.79,204.3,137.77,203.74,133.84Z" transform="translate(-1.91 -37.98)" fill="url(#linear-gradient-9)"/><path d="M216.44,133.49a418.32,418.32,0,0,1,60.69-32.9A329.22,329.22,0,0,1,342.34,81a342.82,342.82,0,0,1,34.08-3.08q17.11-1.87,34.27-3.11c22.88-1.3,43.84-2.39,68.74-1.13-22.91-.92-43.84.32-68.66,2.16q-17.12,1.48-34.17,3.62A336.67,336.67,0,0,0,343,83a326.32,326.32,0,0,0-64.38,22.44,413.14,413.14,0,0,0-39.6,33.46Z" transform="translate(-1.91 -37.98)" fill="#2e7ce4"/><path d="M216.44,133.49c19.33-12.7,40.64-23,61.7-32.23A323.48,323.48,0,0,1,343,81.7a337.06,337.06,0,0,1,33.79-3c11.4-1.23,22.84-2.6,34.28-3.43,22.87-1.49,43.69-2.83,68.39-1.39-22.91-.92-43.84.32-68.66,2.16q-17.12,1.48-34.17,3.62A336.67,336.67,0,0,0,343,83a326.32,326.32,0,0,0-64.38,22.44,413.14,413.14,0,0,0-39.6,33.46Z" transform="translate(-1.91 -37.98)" fill="url(#linear-gradient-10)"/><path d="M236.33,187.37c-.1,1.73-.18,3.67.87,3.07,2.77-1.63,3.6-3.22,3.93-8.42a69.63,69.63,0,0,0-.32-19,8.61,8.61,0,0,0-.87-2.91,7.89,7.89,0,0,0-3.62-2.88,6.07,6.07,0,0,0-2.86-.73,2.4,2.4,0,0,0-2.23,1.63,3.37,3.37,0,0,0,.19,1.82,26.27,26.27,0,0,0,2.16,6.13,17.23,17.23,0,0,1,2.17,3.06A44.87,44.87,0,0,1,236.33,187.37Z" transform="translate(-1.91 -37.98)" fill="url(#linear-gradient-11)"/><path d="M198.38,164.27c2,1.39,4.72,2.08,7.3,2.26,1,.06,1.9.09,2.83.13a3.34,3.34,0,0,1,3.11,3.08q.1,3,.11,3.91c0,4.73-.16,9.67,1.91,13.91.44.88,1.14,1.83,2.12,1.84a2.38,2.38,0,0,0,1.44-.38,7.44,7.44,0,0,0,2.49-4.12,19.89,19.89,0,0,0,.42-4.87c0-6.26-.33-12.63-3-18.41a13,13,0,0,0-1-1.9,11,11,0,0,0-6.77-4.31,26.76,26.76,0,0,0-8.29-.43c-1.32.08-2.63.19-4,.26-.74,0-3.3-.38-4,0C194.3,139.73,197.79,163.67,198.38,164.27Z" transform="translate(-1.91 -37.98)" fill="url(#linear-gradient-12)"/><path d="M220,212a10.92,10.92,0,0,0,2.3,1.73l3.6,2.24c1.3.81,3,1.6,4.23.69s1-2.49.38-3.79a12,12,0,0,0-3.26-3,3,3,0,0,1-.79-.9,2.36,2.36,0,0,1-.16-1.17l0-3.7c0-3.76-3.16-3.08-6.79-.86C217.7,203.94,217.64,209.3,220,212Z" transform="translate(-1.91 -37.98)" fill="#606161"/><path d="M238,207.38a7.83,7.83,0,0,0,3.73,3.03,26.67,26.67,0,0,0,4.37,1.69,2.11,2.11,0,0,0,2-.17,1.93,1.93,0,0,0,.48-1,7.42,7.42,0,0,0-1.81-6.66,12.3,12.3,0,0,1-2-2.13c-.7-1.24-.33-2.73-.68-4.17-.28-3.1-3.22-2.29-6.41-.28S237,203.43,238,207.38Z" transform="translate(-1.91 -37.98)" fill="#606161"/><path d="M203.89,117.34c.03-1.31,1.36-2.63,2.33-3.78a11,11,0,0,0,2.61-7.79c-.1-1.61-1.16-3.39-2.74-3.23a2.92,2.92,0,0,0-1,.31,18.74,18.74,0,0,0-7.41,10.34,9.76,9.76,0,0,0-.32,4.61,10.74,10.74,0,0,0,3.4,3.24,28.77,28.77,0,0,0,10.7,6.39c1.06.33,4.29,1.42,3.37-.62C216.61,127.83,203.83,118.83,203.89,117.34Z" transform="translate(-1.91 -37.98)" fill="url(#linear-gradient-13)"/><path d="M218.06,138.73l10.18.06s-2.16,3.33-3.94,3.73Z" transform="translate(-1.91 -37.98)" fill="#2e7ce4"/><path d="M198.31,101.93a69.71,69.71,0,0,0-1.79,13.16c0,3.61.29,7.46,2.31,10.31a12.26,12.26,0,0,0,8.16,4.24,36.32,36.32,0,0,0,9.39-.34l9.43-1.17a3,3,0,0,0,2.06-.37c1.9-1.2,1.22-4.36-.39-3.7s-3.9.77-6.06.12c-2.39-.72-10.91-2.46-12.67-4.23a2.39,2.39,0,0,1-.73-1.16,2.83,2.83,0,0,1,.22-1.43c2.1-6.33,7.44-17.12,2.92-22.38C203.62,88.33,199.6,96.32,198.31,101.93Z" transform="translate(-1.91 -37.98)" fill="#2e7ce4"/><path d="M220.73,97.34a3.33,3.33,0,0,0,6-.33,4.39,4.39,0,0,0,1.47-2.7c.43-3-2-3.7-1.83-8.68.11-1.48.89-3,.36-4.39-.43-1.18-7.07-3.11-7.31-1.86C217.74,88.18,213.31,93.93,220.73,97.34Z" transform="translate(-1.91 -37.98)" fill="#f4a982"/><path d="M220.38,79.81s-.69,12.91,6.27,12c0,0,1.09-.13.76-1.74s-1.66-3.23-1.39-4.64S220.38,79.81,220.38,79.81Z" transform="translate(-1.91 -37.98)" fill="url(#linear-gradient-14)"/><path d="M237.73,71.79c-.42,3.7-2.81,7.91-4.29,10.3a14.47,14.47,0,0,1-3.67,4.3,3.83,3.83,0,0,1-3.32.82c-1.63-.7-2.68-2.33-3.46-4a17.84,17.84,0,0,1-1.73-8.24c.16-3,1.36-8.61,3.77-6.47.86.43,1.44,1.28,2.26,1.81a3.81,3.81,0,0,0,3.92.21c.43-.23.93-.62,1.44-.43a1.91,1.91,0,0,1,.62.41,3,3,0,0,0,3.34,0A1.69,1.69,0,0,0,237.73,71.79Z" transform="translate(-1.91 -37.98)" fill="#f4a982"/><path d="M239.09,121.32a6.36,6.36,0,0,1,2.64,3.27,1.83,1.83,0,0,1,.2.79,1.31,1.31,0,0,1-.44.91c-1.76,2-3,1.23-7.36,2.41-.39.29-1.12.7-1.73.93a6.19,6.19,0,0,1-2.3.23c-.89,0-1.78-.12-2.67-.22-2.14-.23-2.38-2.6-1.91-4.36.61-1.39,1.6-1.93,3.13-2.19C231.68,122.37,233.88,119.63,239.09,121.32Z" transform="translate(-1.91 -37.98)" fill="#f4a982"/><path d="M241.9,68.16c1.94-.66,2.6-3.38,1.37-3.16a6.2,6.2,0,0,0-3.13-2.84,1.48,1.48,0,0,1-1-.23,2.42,2.42,0,0,1-.49-.66c-.71-1.11-2.23-1.27-3.33-1.27a7.31,7.31,0,0,0-3.71.62c-.9.49-1.6,1.4-2.63,1.77a14.19,14.19,0,0,1-3.22.29,4.34,4.34,0,0,0-3.34,2.39,4.63,4.63,0,0,1-.7,1.27,10.21,10.21,0,0,1-.86.66A3,3,0,0,0,217,68.86a13.41,13.41,0,0,0,.74,4.32,1.49,1.49,0,0,0,.37.74c.43.37,2,1.31,2.29,1,.38-1,.28-3.28,1.47-3.83s1.06.44,2,1a3.73,3.73,0,0,0,3.17.33c.34-.21,1-.49,1.37-.7a2.21,2.21,0,0,1,1.64-.08c1,.43,1.12,1.83,2,2.31a2.21,2.21,0,0,0,3-.7,2.33,2.33,0,0,0,.82,1.32,1.09,1.09,0,0,0,1.49-.08c.2-.23.24-.66.49-.91a1.4,1.4,0,0,1,.91-.29,3.23,3.23,0,0,0,1.69,0,3.79,3.79,0,0,0,2.67-2.31A2.41,2.41,0,0,0,241.9,68.16Z" transform="translate(-1.91 -37.98)" fill="#606161"/><path d="M219.16,73a1.13,1.13,0,0,0-.33-.11,1,1,0,0,0-.69.34,2.24,2.24,0,0,0-.17.89,3.49,3.49,0,0,0,.13,1.34,2.26,2.26,0,0,0,1.49,1.84,1.48,1.48,0,0,0,1.69-1A3.41,3.41,0,0,0,219.16,73Z" transform="translate(-1.91 -37.98)" fill="#f4a982"/><path d="M219.33,73.26c-.13-.24,0-.32,0-.79s-.36-.3-.73-.67a.22.22,0,0,0-.12.09,2.09,2.09,0,0,0-.17,1.73,1.31,1.31,0,0,0,.3.37.67.67,0,0,0,.39.22.83.83,0,0,0,.34-.38C220,73.4,219.73,73.37,219.33,73.26Z" transform="translate(-1.91 -37.98)" fill="url(#linear-gradient-13)"/><path d="M278.24,98.24c-1.06.88-2.1,1.78-3.1,2.72a3.78,3.78,0,0,0-1.2,1.61c-.36,1.22.33,2.46,1.36,3.19a7.42,7.42,0,0,0,10.62-2.1,4.61,4.61,0,0,0,.39-4.13,4.06,4.06,0,0,0-2.77-2.21A6.72,6.72,0,0,0,278.24,98.24Z" transform="translate(-1.91 -37.98)" fill="#f4a982"/><path d="M339.73,268.4a14.82,14.82,0,1,1,14.82-14.82A14.83,14.83,0,0,1,339.73,268.4Zm0-23.32a10.7,10.7,0,1,0,10.7,10.7A10.71,10.71,0,0,0,339.73,242.88Z" transform="translate(-1.91 -37.98)" fill="#2e7ce4"/><rect x="369.41" y="260.93" width="4.43" height="13.86" transform="translate(-88.34 230.31) rotate(-38.34)" fill="#2e7ce4"/><rect x="49.37" y="233.27" width="186.69" height="63.39" rx="18.33" fill="#fff"/><rect x="68.91" y="231.2" width="131.18" height="3.63" rx="2.81" fill="#2e7ce4" opacity="0.24" style="isolation:isolate"/><rect x="68.91" y="266.73" width="106.4" height="3.32" rx="2.29" fill="#2e7ce4" opacity="0.24" style="isolation:isolate"/><rect x="461.44" y="317.64" width="186.69" height="63.39" rx="18.33" fill="#fff"/><rect x="480.78" y="333.37" width="131.18" height="3.63" rx="2.81" fill="#2e7ce4" opacity="0.24" style="isolation:isolate"/><rect x="480.78" y="331.13" width="106.4" height="3.32" rx="2.29" fill="#2e7ce4" opacity="0.24" style="isolation:isolate"/></svg>